<?xml version="1.0" standalone="no"?>
<!DOCTYPE svg PUBLIC "-//W3C//DTD SVG 20010904//EN"
 "http://www.w3.org/TR/2001/REC-SVG-20010904/DTD/svg10.dtd">
<svg version="1.0" xmlns="http://www.w3.org/2000/svg"
 width="512.000000pt" height="512.000000pt" viewBox="0 0 512.000000 512.000000"
 preserveAspectRatio="xMidYMid meet">
<metadata>
Created by potrace 1.11, written by Peter Selinger 2001-2013
</metadata>
<g transform="translate(0.000000,512.000000) scale(0.100000,-0.100000)"
fill="#000000" stroke="none">
<path d="M2397 5109 c-615 -37 -1202 -303 -1643 -743 -205 -206 -362 -427
-488 -688 -160 -329 -234 -611 -255 -967 -20 -343 32 -711 144 -1016 84 -232
266 -557 408 -729 378 -462 876 -772 1444 -901 331 -75 737 -76 1083 -4 472
97 926 344 1275 694 353 353 602 814 699 1295 65 325 64 734 -5 1044 -120 546
-412 1039 -829 1398 -511 440 -1160 658 -1833 617z m-351 -1223 c30 -30 34
-40 34 -86 0 -46 -4 -56 -34 -86 l-34 -34 -286 0 -286 0 0 -286 0 -286 -34
-34 c-30 -30 -40 -34 -86 -34 -46 0 -56 4 -86 34 l-34 34 0 372 0 372 34 34
34 34 372 0 372 0 34 -34z m1840 0 l34 -34 0 -372 0 -372 -34 -34 c-30 -30
-40 -34 -86 -34 -46 0 -56 4 -86 34 l-34 34 0 286 0 286 -286 0 -286 0 -34 34
c-30 30 -34 40 -34 86 0 46 4 56 34 86 l34 34 372 0 372 0 34 -34z m-1026
-981 c58 -30 61 -47 58 -355 l-3 -280 -33 -32 -32 -33 -291 0 -291 0 -34 37
-34 38 0 275 c0 301 3 320 58 349 40 23 560 23 602 1z m-1454 -859 l34 -34 0
-286 0 -286 286 0 286 0 34 -34 c30 -30 34 -40 34 -86 0 -46 -4 -56 -34 -86
l-34 -34 -372 0 -372 0 -34 34 -34 34 0 372 0 372 34 34 c30 30 40 34 86 34
46 0 56 -4 86 -34z m2480 0 l34 -34 0 -372 0 -372 -34 -34 -34 -34 -372 0
-372 0 -34 34 c-30 30 -34 40 -34 86 0 46 4 56 34 86 l34 34 286 0 286 0 0
286 0 286 34 34 c30 30 40 34 86 34 46 0 56 -4 86 -34z"/>
<path d="M2440 2560 l0 -120 120 0 120 0 0 120 0 120 -120 0 -120 0 0 -120z"/>
</g>
</svg>
